<mxfile host="app.diagrams.net" agent="Mozilla/5.0 (Windows NT 10.0; Win64; x64) AppleWebKit/537.36 (KHTML, like Gecko) Chrome/138.0.0.0 Safari/537.36" version="28.0.4">
  <diagram name="Página-1" id="uzc9Gm9WNRjhWCsAJ05J">
    <mxGraphModel dx="443" dy="547" grid="1" gridSize="10" guides="1" tooltips="1" connect="1" arrows="1" fold="1" page="1" pageScale="1" pageWidth="827" pageHeight="1169" math="0" shadow="0">
      <root>
        <mxCell id="0" />
        <mxCell id="1" parent="0" />
        <mxCell id="Nfs_TNsquQCAxigeSdQU-1" style="edgeStyle=none;curved=1;rounded=0;orthogonalLoop=1;jettySize=auto;html=1;entryX=0;entryY=0.5;entryDx=0;entryDy=0;fontSize=12;startSize=8;endSize=8;" edge="1" parent="1" source="Nfs_TNsquQCAxigeSdQU-3" target="Nfs_TNsquQCAxigeSdQU-6">
          <mxGeometry relative="1" as="geometry" />
        </mxCell>
        <mxCell id="Nfs_TNsquQCAxigeSdQU-2" value="1. Seleccionar Recurso Para Editar" style="edgeLabel;html=1;align=center;verticalAlign=middle;resizable=0;points=[];fontSize=12;" vertex="1" connectable="0" parent="Nfs_TNsquQCAxigeSdQU-1">
          <mxGeometry x="-0.1184" relative="1" as="geometry">
            <mxPoint as="offset" />
          </mxGeometry>
        </mxCell>
        <mxCell id="Nfs_TNsquQCAxigeSdQU-3" value=":Administrador" style="html=1;whiteSpace=wrap;" vertex="1" parent="1">
          <mxGeometry x="50" y="40" width="110" height="50" as="geometry" />
        </mxCell>
        <mxCell id="Nfs_TNsquQCAxigeSdQU-4" style="edgeStyle=none;curved=1;rounded=0;orthogonalLoop=1;jettySize=auto;html=1;entryX=1;entryY=0.75;entryDx=0;entryDy=0;fontSize=12;startSize=8;endSize=8;" edge="1" parent="1" source="Nfs_TNsquQCAxigeSdQU-6" target="Nfs_TNsquQCAxigeSdQU-13">
          <mxGeometry relative="1" as="geometry" />
        </mxCell>
        <mxCell id="Nfs_TNsquQCAxigeSdQU-5" value="2. Enviar Datos Editados" style="edgeLabel;html=1;align=center;verticalAlign=middle;resizable=0;points=[];fontSize=12;" vertex="1" connectable="0" parent="Nfs_TNsquQCAxigeSdQU-4">
          <mxGeometry x="-0.0453" y="-1" relative="1" as="geometry">
            <mxPoint x="-1" as="offset" />
          </mxGeometry>
        </mxCell>
        <mxCell id="Nfs_TNsquQCAxigeSdQU-6" value=":UI_Recursos" style="html=1;whiteSpace=wrap;" vertex="1" parent="1">
          <mxGeometry x="350" y="150" width="110" height="50" as="geometry" />
        </mxCell>
        <mxCell id="Nfs_TNsquQCAxigeSdQU-9" style="edgeStyle=none;curved=1;rounded=0;orthogonalLoop=1;jettySize=auto;html=1;entryX=0;entryY=0.5;entryDx=0;entryDy=0;fontSize=12;startSize=8;endSize=8;" edge="1" parent="1" source="Nfs_TNsquQCAxigeSdQU-13" target="Nfs_TNsquQCAxigeSdQU-15">
          <mxGeometry relative="1" as="geometry" />
        </mxCell>
        <mxCell id="Nfs_TNsquQCAxigeSdQU-10" value="4. Actualizar Recurso" style="edgeLabel;html=1;align=center;verticalAlign=middle;resizable=0;points=[];fontSize=12;" vertex="1" connectable="0" parent="Nfs_TNsquQCAxigeSdQU-9">
          <mxGeometry x="0.0661" y="-2" relative="1" as="geometry">
            <mxPoint y="-1" as="offset" />
          </mxGeometry>
        </mxCell>
        <mxCell id="Nfs_TNsquQCAxigeSdQU-11" style="edgeStyle=none;curved=1;rounded=0;orthogonalLoop=1;jettySize=auto;html=1;entryX=0.5;entryY=0;entryDx=0;entryDy=0;fontSize=12;startSize=8;endSize=8;" edge="1" parent="1" source="Nfs_TNsquQCAxigeSdQU-13" target="Nfs_TNsquQCAxigeSdQU-16">
          <mxGeometry relative="1" as="geometry" />
        </mxCell>
        <mxCell id="Nfs_TNsquQCAxigeSdQU-12" value="5. Notificar Edición Exitosa" style="edgeLabel;html=1;align=center;verticalAlign=middle;resizable=0;points=[];fontSize=12;" vertex="1" connectable="0" parent="Nfs_TNsquQCAxigeSdQU-11">
          <mxGeometry x="0.3794" relative="1" as="geometry">
            <mxPoint y="-38" as="offset" />
          </mxGeometry>
        </mxCell>
        <mxCell id="Nfs_TNsquQCAxigeSdQU-13" value=":SistemaRecursos" style="html=1;whiteSpace=wrap;" vertex="1" parent="1">
          <mxGeometry x="50" y="230" width="110" height="50" as="geometry" />
        </mxCell>
        <mxCell id="Nfs_TNsquQCAxigeSdQU-15" value=":BD_Recursos" style="html=1;whiteSpace=wrap;" vertex="1" parent="1">
          <mxGeometry x="350" y="320" width="110" height="50" as="geometry" />
        </mxCell>
        <mxCell id="Nfs_TNsquQCAxigeSdQU-16" value=":Notificación" style="html=1;whiteSpace=wrap;" vertex="1" parent="1">
          <mxGeometry x="50" y="410" width="110" height="50" as="geometry" />
        </mxCell>
        <mxCell id="Nfs_TNsquQCAxigeSdQU-17" style="edgeStyle=none;curved=1;rounded=0;orthogonalLoop=1;jettySize=auto;html=1;exitX=0.5;exitY=0;exitDx=0;exitDy=0;fontSize=12;startSize=8;endSize=8;" edge="1" parent="1" source="Nfs_TNsquQCAxigeSdQU-15" target="Nfs_TNsquQCAxigeSdQU-15">
          <mxGeometry relative="1" as="geometry" />
        </mxCell>
        <mxCell id="Nfs_TNsquQCAxigeSdQU-19" style="edgeStyle=orthogonalEdgeStyle;rounded=0;orthogonalLoop=1;jettySize=auto;html=1;entryX=0;entryY=0.25;entryDx=0;entryDy=0;fontSize=12;startSize=8;endSize=8;" edge="1" parent="1" target="Nfs_TNsquQCAxigeSdQU-13">
          <mxGeometry relative="1" as="geometry">
            <mxPoint x="160" y="243" as="sourcePoint" />
            <Array as="points">
              <mxPoint x="180" y="243" />
              <mxPoint x="180" y="200" />
              <mxPoint x="30" y="200" />
              <mxPoint x="30" y="243" />
            </Array>
          </mxGeometry>
        </mxCell>
        <mxCell id="Nfs_TNsquQCAxigeSdQU-21" value="3. Validar Datos Editados" style="edgeLabel;html=1;align=center;verticalAlign=middle;resizable=0;points=[];fontSize=12;" vertex="1" connectable="0" parent="Nfs_TNsquQCAxigeSdQU-19">
          <mxGeometry x="-0.0015" y="1" relative="1" as="geometry">
            <mxPoint as="offset" />
          </mxGeometry>
        </mxCell>
      </root>
    </mxGraphModel>
  </diagram>
</mxfile>
